<?xml version="1.0" encoding="utf-8"?>
<!-- Generator: Adobe Illustrator 17.0.0, SVG Export Plug-In . SVG Version: 6.00 Build 0)  -->
<!DOCTYPE svg PUBLIC "-//W3C//DTD SVG 1.1//EN" "http://www.w3.org/Graphics/SVG/1.1/DTD/svg11.dtd">
<svg version="1.1" id="Livello_1" xmlns="http://www.w3.org/2000/svg" xmlns:xlink="http://www.w3.org/1999/xlink" x="0px" y="0px"
	 width="224.031px" height="43.896px" viewBox="0 0 224.031 43.896" enable-background="new 0 0 224.031 43.896"
	 xml:space="preserve">
<g id="XMLID_719_">
	<path id="XMLID_720_" fill="#FFFFFF" d="M25.646,33.655c-0.1,0-0.348,0-0.348-0.099c-0.646-0.248-1.69-1.043-1.539-2.186v-0.149
		c0.149-1.143-0.25-2.385-0.25-3.527c0.299-1.938,0.299-3.875,0.349-6.061v-2.385c0.05-1.689-0.149-3.18-0.696-4.322
		c-0.248,0-0.496-0.149-0.596-0.149c-0.199-0.248-0.447-0.248-0.547-0.348c-1.243-0.248-1.093-0.149-2.137,0.049
		c-0.348,0.695-0.596,1.391-0.745,2.385c-0.098,0.248-0.098,0.597-0.098,0.844c0,0.994-0.149,1.938-0.397,2.485v0.248h-0.199
		c-0.049,0.795-0.049,1.59-0.049,2.385v0.199v0.248c-0.299,2.981-0.35,6.061-0.151,9.241h-0.1c0,0.944-0.596,1.242-1.739,0.994
		c0,0-0.247,0-0.247-0.1c-0.796-0.248-0.895-1.044-0.747-2.285v-0.348c0-1.242,0.05-2.534,0.05-3.776V26.65
		c0.049-0.895,0.049-1.689,0.049-2.385c0,0,0-0.1-0.099-0.1c-0.248-0.696-0.198-1.49-0.098-2.285c0-0.943,0.149-1.738,0.149-2.534
		c0.149-0.795,0-1.242-0.199-1.74c0.1-0.297,0.248-0.894,0.149-1.589c-0.098-1.342-0.894-2.038-2.035-2.535
		c-0.348,0-0.448,0.1-0.696,0.1c-0.547,0.348-1.143,0.447-1.69,0.447c0,0.1,0,0.25-0.149,0.348
		c-0.098,0.547-0.446,0.894-1.044,1.242c0,0.695,0,1.49-0.149,2.185c-0.1,0.298-0.1,0.647-0.1,0.994
		c0.1,1.391-0.049,2.534-0.199,3.528c-0.199,0.795-0.248,1.49,0.1,1.937c0,0.248-0.1,0.496,0,0.696c0,1.043-0.049,1.838-0.149,2.633
		c0.348,0.795,0.297,1.738,0.199,2.732c-0.15,0.348-0.05,0.795,0.098,1.291c0.1,0.448,0.1,0.795-0.049,0.994
		c-0.099,0.248-0.347,0.596-0.547,0.696c-0.149,0-0.248,0.1-0.248,0.199c-0.249,0.248-0.348,0.248-0.597,0.149
		c-0.547-0.248-0.894-0.496-1.242-1.043c0.049-0.695,0.149-1.293,0.149-1.838c0.249-0.795,0.05-1.044-0.297-1.044v-0.346v-0.1h0.198
		c0.249-0.697,0.15-1.49-0.198-2.285l0.049-0.1v-0.696h0.1c-0.1-1.49-0.05-3.23-0.05-5.166c0-0.994,0.15-2.037,0.298-3.081
		c0-0.795-0.099-1.59-0.447-2.384v-0.348c-0.1-0.894-0.199-2.037-0.149-3.18c0.348-0.795,1.043-1.143,2.186-1.242
		c0.646-0.1,1.441,0,2.583,0.149h0.249c0.795-0.198,1.491-0.198,1.838-0.198c2.185,0.049,4.222,0.049,6.408,0.098
		c0.1,0,0.1-0.098,0.1-0.098c0.547,0.348,1.342,0.446,2.483,0.149h0.249c0.098,0,0.347,0.099,0.695,0.099
		c0.448,0.348,0.895,0.696,1.341,1.192c0,0.099,0,0.099,0.248,0.099c0.1,0.1,0.298,0.1,0.298,0.248
		c0.447,0.448,0.894,1.143,1.143,1.69h0.199c0.1,1.391,0.1,2.633-0.049,3.576v0.199c0,1.143,0,2.286-0.051,3.329v0.248v0.547v0.249
		c0,0.894,0,1.937-0.048,2.832h0.149c-0.049,1.937-0.049,3.775,0.249,5.713C27.037,32.512,26.69,33.456,25.646,33.655"/>
	<path id="XMLID_721_" fill="#FFFFFF" d="M43.533,29.532v1.242c0,0.795-0.049,1.49-0.049,2.285v0.248c0,0.199-0.1,0.348-0.248,0.547
		c-0.447,0.248-1.142,0.348-2.037,0.298c-2.881,0-5.366-0.149-7.751-0.645v-0.149c-0.347-0.448-0.894-0.697-1.49-0.796v-0.248
		c-0.547-0.547-0.992-1.143-1.341-1.738h-0.1c-0.1-0.547-0.199-0.895-0.348-1.342H30.07v-0.944h-0.199
		c0-0.646-0.099-1.49-0.099-2.285c0.348-0.1,0.596-0.298,0.596-0.795h0.099c-0.099-0.447-0.099-0.647,0.15-0.895
		c0.349-0.348,0.696-0.795,0.696-1.49c0.198,0,0.446,0,0.694,0.049c0.099,0,0.099,0,0.199-0.147l1.391-1.342
		c0.695,0,1.292-0.199,1.838-0.447c0.099-0.099,0.099-0.099,0.248-0.099c1.689,0.149,3.28-0.05,4.472-0.399
		c0-0.099,0-0.099,0.1-0.099c0.447-0.893,0.695-1.837,1.043-2.733c0-0.1,0-0.1-0.099-0.198c-0.447-0.845-0.894-1.639-1.341-2.336
		c-0.694-0.099-1.341-0.347-2.285-0.347c-2.286-0.049-4.322,0.149-6.407,0.248h-0.099c-1.145-0.397-1.592-1.291-1.442-2.881
		c0.447-0.596,1.142-0.795,2.284-0.795c0.944,0.05,2.088,0.05,3.677-0.049c1.242,0,2.633-0.051,3.974-0.051
		c0.795,0.448,1.739,1.043,2.386,1.641h0.247c0.795,1.043,0.994,2.285,1.093,4.024c-0.049,1.441,0.099,5.465,0.15,7.75
		c0.049,0.596,0.049,1.242,0.049,1.938C43.583,27.495,43.583,28.488,43.533,29.532"/>
	<path id="XMLID_722_" fill="#FFFFFF" d="M58.986,13.534c0,0,0,0.149,0.149,0.248c0.199,1.49,0.15,2.832-0.199,4.322v0.149
		c-0.248,0.199-0.596,0.447-1.142,0.398c-0.596-0.1-0.894-0.447-0.994-1.044c-0.099-0.993-0.347-1.788-0.646-2.731
		c-0.348-0.248-0.795-0.596-1.142-0.795c-0.349-0.249-0.796-0.348-1.491-0.398h-0.248c-0.547,0.447-1.142,0.696-1.838,0.994v0.149
		c-0.099,0.547-0.248,1.143-0.695,1.441v0.149c0.199,0.994,0.099,1.838-0.15,2.286c-0.049,2.932,0.05,5.912,0,9.142v0.099
		c0,0.894,0.1,1.838,0.199,2.733v0.1c-0.049,1.043-0.049,1.639-0.298,2.185v0.1c-0.198,0.447-0.547,0.893-1.142,1.142
		c-0.547-0.447-0.894-1.043-1.093-1.838v-0.348c0-2.385-0.049-4.92-0.049-7.403h0.149c0-0.596,0-1.293-0.1-1.987v-0.199v-0.348
		v-0.349c0.149-1.341,0.149-2.483-0.149-3.676v-0.098c0-2.037,0.049-3.975,0.049-6.061c0.348-0.199,0.695-0.447,1.193-0.547h0.795
		c0.447,0.049,1.243,0.049,2.039,0.049h0.247c0.199-0.199,0.695-0.199,1.143-0.1c0.894,0.15,2.036,0.15,3.08-0.049
		c0.198,0.2,0.447,0.448,0.646,0.696C57.893,12.639,58.439,13.087,58.986,13.534"/>
	<path id="XMLID_723_" fill="#FFFFFF" d="M71.704,33.953c0,0.895-0.447,1.242-1.489,1.094h-0.1c-1.045,0-1.939,0-2.534,0.1
		c-1.145,0-2.287-0.05-3.429-0.05v-0.248c-0.646-0.348-1.342-0.696-2.036-1.043c-0.448-0.696-0.647-1.242-0.995-1.938
		c-0.248-0.248-0.199-0.597-0.348-1.043c0.049-1.143-0.05-2.385-0.15-3.676c0.05-2.832-0.149-5.713-0.098-8.545v-0.249v-2.484h0.248
		V15.72c0.248-1.093,0.943-2.037,1.64-2.683h0.1c0.596-0.1,0.844-0.348,1.192-0.695c1.441,0.049,3.08-0.049,4.669-0.248
		c1.044,0,1.84,0.149,2.286,0.348c0.199,0.248,0.447,0.696,0.547,1.143c0,0.149,0.099,0.248,0.099,0.248
		c0.348,0.348,0.348,0.795,0.1,1.59c-0.696,0-1.491,0.1-2.037,0.1c-1.738-0.15-3.328-0.05-4.818,0.299v0.098
		c-0.349,0.547-0.944,0.994-1.391,1.441c-0.15,0.795-0.15,1.838-0.15,2.633c0.1,0.943,0.1,1.738-0.049,2.533v0.795
		c0.199,0.547,0.199,1.342,0.199,2.285v0.795c-0.249,0.795-0.249,1.838-0.05,2.833c0.099,0.943,0.447,1.49,0.894,2.086v0.1
		c0.796,0.596,1.441,0.746,2.236,0.496c0-0.1,0-0.1-0.1-0.198c-0.099-0.349,0.149-0.349,0.695-0.249h0.248
		c0.894,0.348,2.037,0.249,3.081-0.049v0.099C71.158,31.866,71.755,32.562,71.704,33.953"/>
	<path id="XMLID_724_" fill="#FFFFFF" d="M87.305,28.439c0.1,0.795-0.149,1.59-0.496,2.285c-0.447,0.545-0.796,1.092-1.142,1.788
		c-0.796,0.447-1.74,0.895-2.633,1.342h-0.248v0.248c-0.895-0.049-1.74-0.049-2.634-0.049h-0.248
		c-2.136-0.397-3.726-1.441-4.868-2.93h-0.099c-0.349-0.597-0.646-1.044-0.895-1.64c0-0.1,0-0.1-0.099-0.199
		c-0.198-0.448-0.348-1.291-0.198-2.087v-0.198c0-1.392,0.049-2.435,0.049-3.329c0-1.143-0.1-2.534,0.049-3.875
		c0.249-0.894,0.249-1.59,0.05-2.037v-0.248v-0.795c0.248-0.893,0.695-1.838,1.194-2.633v-0.348
		c0.346-0.099,0.545-0.297,0.793-0.545v-0.1c1.292-0.796,2.782-1.441,4.373-1.789H80.5c0.297,0.149,0.893,0.149,1.689,0.149h0.248
		c0.199,0.498,0.647,0.597,1.341,0.597h0.1c0.695,0.794,1.242,1.49,1.939,2.186c0.446,0.596,0.893,1.291,1.191,2.184
		c0,0.15,0.149,0.249,0.248,0.249c0.149,3.875,0.248,7.899,0.049,11.527V28.439z"/>
	<path id="XMLID_725_" fill="#FFFFFF" d="M118.565,14.769c0,2.186-0.049,4.124,0.15,5.814c0.098,0.943,0.098,1.837,0.098,2.733
		c-0.049,2.185,0.05,4.123,0.15,6.21c0,0.545,0.1,1.141,0.199,1.788c0.098,0,0.098,0,0.198,0.049
		c-0.198,0.646-0.248,1.689-0.149,2.832c0.1,1.837,0.1,3.676,0.049,5.713c0,1.837-0.744,3.08-2.085,3.627
		c-0.497-0.15-0.944-0.348-1.391-0.596h-0.199c-0.596,0.545-1.391,0.795-2.335,0.894c-1.49,0.098-2.832,0.049-4.323,0.049
		c-0.695,0-1.39-0.049-2.036-0.149c-0.795,0-1.143-0.349-1.243-1.043c-0.248-0.696-0.1-1.393,0.349-1.939c0.1,0,0.1-0.098,0.1-0.248
		c1.043,0.05,2.185,0.15,3.08,0.298c0.149,0.099,0.149,0.099,0.248,0.099c0.943-0.447,2.087-0.547,3.428-0.398
		c1.391,0,2.385-0.198,3.08-0.744c0.348-0.597,0.597-1.044,0.946-1.74v-0.198c-0.101-0.695-0.399-1.39-0.747-1.838
		c-0.149,0-0.149-0.1-0.149-0.1c-1.093-0.398-2.385-0.497-3.876-0.398c-0.446-0.049-1.242-0.049-2.036-0.297
		c-1.143-0.1-2.137-0.596-3.08-1.193c-0.298-0.447-0.744-0.994-0.994-1.59h-0.199c0-1.589-0.1-3.079-0.05-4.57v-0.249V27.39v-0.795
		v-0.597c0-0.547,0-0.994-0.199-1.242v-0.249v-0.992h0.15c0.199-1.293,0.1-2.286-0.099-3.08v-0.15c0.149-0.547,0-1.243,0.049-2.286
		v-0.347c0-0.348-0.1-0.646-0.198-0.894c0.198-0.448,0.348-1.043,0.447-1.491c0.249-0.348,0.497-0.646,0.596-1.142
		c1.142-0.894,2.782-1.292,4.72-1.491c1.143,0,2.137,0,3.28,0.15c0.694,0.099,1.291,0.099,1.738-0.1
		c0.547-0.199,1.142-0.199,1.341,0C118.267,13.18,118.616,13.875,118.565,14.769"/>
	<path id="XMLID_726_" fill="#FFFFFF" d="M136.205,32.706c0,0.894,0,1.589-0.249,2.036l-0.1,0.098
		c-1.141,0.1-2.434,0.199-3.774,0.199h-0.248c0,0.1-0.1,0.1-0.25,0.1v-0.1c-0.795-0.149-1.589-0.149-2.383-0.149v0.199h-0.199
		c-2.285,0.2-3.876-0.398-4.919-1.441c-0.348-0.447-0.447-0.795-0.647-1.243c-0.099-0.596-0.248-0.943-0.547-1.291v-0.199
		c0-1.292-0.199-2.534-0.199-3.676c0.348-0.796,0.348-1.59,0.249-2.734v-0.099c0.149-0.1,0.149-0.248,0.149-0.348v-0.248
		c0-1.142-0.099-2.286-0.05-3.428v-0.099c0-1.043,0-2.037,0.05-2.981c0.348-0.795,0.895-1.59,1.391-2.235
		c0.1-0.15,0.1-0.15,0.1-0.249c0.943-0.645,1.988-1.341,3.129-1.888h0.1c0.695-0.199,1.143-0.199,1.243,0
		c0.15,0.149,0.447,0.149,1.043,0.049h0.447c0.695,0.248,1.491,0.447,2.285,0.695h0.1c0.1,0.349,0.348,0.696,0.547,0.796v0.15
		c0.496-0.1,0.844,0.098,1.044,0.347h0.1c0.694,1.043,1.24,2.186,1.539,3.576v0.199c-0.1,0.696-0.1,1.491,0,2.285v0.248
		c-0.049,1.143-0.049,2.286-0.049,3.429v0.198c-0.15,0.349-0.497,0.696-0.845,0.696h-0.199c-0.595-0.249-1.242-0.249-2.036-0.398
		h-0.696c-1.739,0.199-3.576,0.298-5.266,0.398c-0.1,0-0.346,0-0.446,0.1c-0.348,0-0.496,0-0.597,0.346
		c-0.1,0.347-0.249,0.796-0.447,1.244c-0.15,1.588-0.05,2.831,0.496,3.676c0.1,0,0.1,0.1,0.1,0.198
		c0.695,0.347,1.491,0.596,2.633,0.646c0.1-0.15,0.1,0,0.2,0c0.149,0.1,0.149,0.1,0.248,0.199c1.043-0.199,2.185-0.199,3.327,0.049
		c0.547,0.149,0.895,0,1.044-0.447c0.298,0.348,0.895,0.497,1.589,0.398c0.099,0,0.099,0,0.199,0.1
		C135.508,32.457,135.856,32.706,136.205,32.706"/>
	<path id="XMLID_727_" fill="#FFFFFF" d="M147.732,16.658c-0.248-0.099-0.596-0.199-0.943-0.248c-1.69-0.597-3.278-0.497-4.77,0.199
		v0.198c-0.447,0.447-0.596,1.044-0.596,1.938v0.099c0.297,0.844,0.894,1.54,1.54,2.087c1.589,0.944,2.982,1.888,4.421,2.932
		c0.447,0.248,1.045,0.596,1.69,0.695v0.15c0.795,0.545,1.589,1.39,2.285,2.186v0.098c0.893,1.837,0.943,4.025,0.15,6.16
		c0,0-0.15,0-0.249,0.149c-0.448,0.547-0.944,0.995-1.491,1.541h-0.15c-0.447,0.248-1.042,0.596-1.49,0.795h-0.994h-0.248
		c-0.1,0.199-0.249,0.199-0.448,0c-0.148-0.149-0.446-0.248-0.695-0.248c-1.142-0.049-2.036-0.248-2.832-0.497
		c-0.596-0.248-1.142-0.496-1.739-0.596c-1.242-0.249-2.136-0.845-2.583-1.888v-0.1c0.347-0.695,0.943-1.044,1.84-1.342
		c0.595,0,1.141,0,1.588,0.248c0.497,0.249,0.944,0.249,1.492,0.349c1.141,0.248,2.284,0.398,3.427,0.398
		c0.894,0,1.492-0.099,1.939-0.647c0.149-0.596,0.149-1.043-0.099-1.589c-0.1-0.496-0.3-0.944-0.3-1.292h-0.248
		c-0.547-0.547-1.093-1.043-1.54-1.589c-0.15,0-0.249,0-0.249-0.149c-0.545-0.348-0.894-0.696-1.242-1.143h-0.099
		c-1.142-0.696-2.286-1.292-3.627-1.64v-0.248c-0.1-0.349-0.447-0.597-0.893-0.696c0-0.1,0-0.1-0.149-0.1
		c-0.2-0.347-0.548-0.596-0.995-0.943v-0.248c-0.349-0.447-0.547-0.995-0.646-1.59c0-0.248,0-0.348,0.099-0.547v-0.149
		c-0.349-0.447-0.298-1.242-0.099-2.285v-0.1v-0.248c0.149-0.348,0.397-0.795,0.496-1.242c0-0.099,0.248-0.2,0.447-0.349
		c0,0,0.15-0.1,0.249-0.199c0.098-0.248,0.348-0.596,0.696-0.795c0.595-0.199,1.141-0.447,1.738-0.795c0-0.099,0-0.099,0.1-0.099
		c0.447,0.15,1.044,0,1.589-0.297v-0.25h0.248c2.832,0.3,5.217,0.896,7.404,1.69v0.347c0.297,1.143,0.098,2.087-0.497,2.882
		c-0.101,0-0.249,0.099-0.349,0C149.769,17.403,148.627,17.155,147.732,16.658"/>
	<path id="XMLID_728_" fill="#FFFFFF" d="M168.749,25.104v0.348h-0.199c-0.05,0.795,0.1,1.491,0.049,2.385h0.15
		c0,0,0,0.149,0.098,0.149c0.1,1.59,0.05,2.932-0.198,4.422c0.348,0,0.447,0.149,0.596,0.348v0.248
		c-0.248,0.795-0.496,1.69-0.845,2.385c-1.241,0.298-2.881,0.398-4.669,0.298c-1.837-0.15-3.577-0.1-4.719,0c0,0,0-0.1-0.099-0.1
		c-0.448-0.348-0.796-0.597-1.342-0.944v-0.098c-1.043-0.598-1.69-1.641-2.037-2.784c0,0,0-0.099,0.149-0.198
		c0.199-0.796,0-1.391-0.348-1.838v-0.248c0.05-1.689,0.05-3.279,0.1-4.919c0-1.938,0.149-3.726,0.298-5.465
		c0-0.795-0.199-1.242-0.447-1.69v-0.248v-1.043c0.248,0,0.496-0.199,0.496-0.298v-0.248c0.348-0.249,0.697-0.447,0.894-0.547v-0.15
		c-0.097-0.198-0.346-0.198-0.645-0.198v-0.15V13.28v-0.248v-0.199c1.043-0.348,1.589-0.1,1.837,0.796
		c0.1,0.844,0.199,1.639,0.05,2.782c-0.15,1.788-0.15,3.875-0.05,5.713c0,0.1,0,0.1-0.049,0.199
		c-0.149,3.079,0.049,5.614,0.398,7.651c0.297,0.496,0.547,0.943,0.646,1.291c0.199,0.548,0.795,0.895,1.341,1.044
		c1.043,0,1.937,0,2.881,0.049h0.199c0.695,0,1.143-0.1,1.739-0.198c0-0.15,0.098-0.15,0.098-0.15
		c0.497-0.796,0.845-1.788,0.845-3.031c0.1,0,0.1,0,0.1-0.149l0.05-0.199c0.098-0.795,0.098-1.49,0-2.087v-0.199v-0.149
		c0-0.994,0.049-1.938,0.049-2.931h0.1c0.049-0.497,0.149-1.142,0.398-1.837c-0.349-0.35-0.597-0.796-0.349-1.491v-0.099
		c-0.1-0.496-0.1-1.043-0.1-1.59c0.15-0.348,0.15-0.695,0.15-0.943v-0.348c0-0.894-0.099-1.491-0.298-1.838v-0.349v-1.092
		c0.695-0.695,1.293-0.695,2.186-0.199c0.1,0,0.1,0.1,0.199,0.199c0,0.1,0.149,0.248,0.248,0.447
		c-0.049,2.434-0.049,4.571-0.1,6.309v0.199c0,0.944,0.1,1.739,0.1,2.633h0.099C168.798,23.962,168.798,24.558,168.749,25.104"/>
	<path id="XMLID_729_" fill="#FFFFFF" d="M185.493,31.016v1.242c0,0.796-0.049,1.491-0.049,2.286v0.248
		c0,0.199-0.099,0.349-0.249,0.548c-0.447,0.248-1.141,0.348-2.036,0.297c-2.882,0-5.366-0.149-7.751-0.646v-0.15
		c-0.347-0.447-0.894-0.695-1.491-0.795v-0.248c-0.545-0.545-0.992-1.142-1.341-1.739h-0.1c-0.099-0.547-0.199-0.894-0.347-1.341
		h-0.1v-0.943h-0.199c0-0.647-0.1-1.491-0.1-2.286c0.349-0.1,0.597-0.298,0.597-0.796h0.099c-0.099-0.447-0.099-0.646,0.149-0.894
		c0.349-0.347,0.696-0.795,0.696-1.49c0.198,0,0.447,0,0.695,0.049c0.099,0,0.099,0,0.199-0.148l1.39-1.342
		c0.696,0,1.292-0.199,1.838-0.447c0.1-0.1,0.1-0.1,0.248-0.1c1.69,0.149,3.279-0.05,4.472-0.398c0-0.1,0-0.1,0.099-0.1
		c0.447-0.894,0.695-1.837,1.044-2.733c0-0.099,0-0.099-0.099-0.198c-0.447-0.846-0.894-1.64-1.342-2.336
		c-0.694-0.1-1.341-0.349-2.284-0.349c-2.285-0.048-4.323,0.15-6.408,0.249h-0.1c-1.143-0.398-1.59-1.292-1.442-2.881
		c0.447-0.597,1.143-0.796,2.285-0.796c0.944,0.05,2.088,0.05,3.676-0.049c1.243,0,2.633-0.05,3.975-0.05
		c0.795,0.447,1.739,1.044,2.385,1.641h0.248c0.795,1.043,0.994,2.285,1.093,4.023c-0.05,1.442,0.1,5.465,0.149,7.751
		c0.05,0.596,0.05,1.243,0.05,1.938C185.542,28.979,185.542,29.974,185.493,31.016"/>
	<path id="XMLID_730_" fill="#FFFFFF" d="M196.721,35.438l-0.099,0.099h-0.348c-0.695,0-1.49,0-2.286-0.05c0,0-0.149,0-0.149-0.098
		c-0.646-0.348-1.589-0.596-2.235-0.944v-0.248c-0.348-0.198-0.447-0.447-0.796-0.547c0-0.15,0-0.249-0.098-0.249
		c-0.249-0.547-0.547-1.24-0.696-1.937c0.15,0,0.248-0.098,0.15-0.447v-0.15c0.248-0.1,0.248-0.297,0.248-0.547
		c-0.15-0.346,0-0.695,0-1.043c0.248-1.143,0.149-1.938-0.298-2.733v-0.1c0-1.143,0-1.937-0.198-2.782v-0.199v-0.1
		c0.098,0,0.098,0,0.098-0.149c0.248-0.796,0.15-1.59-0.05-2.485v-0.149v-1.689v-0.1c0-0.15,0.05-0.249,0.05-0.249
		c0.646,0.249,0.646,0.15,0.447-0.198c-0.149-0.15-0.248-0.249-0.099-0.349c0-0.248,0-0.347,0.099-0.597c0.1,0,0.1-0.098,0.1-0.098
		c-0.1-0.696-0.298-1.491-0.496-2.286c0-0.696,0-1.242,0.099-1.937c0.049-0.946-0.099-1.492-0.298-1.938v-0.248v-0.1
		c0.248-0.447,0.348-1.043,0.348-1.74c-0.099-0.547-0.049-1.142-0.049-1.787V7.021c-0.248-0.448-0.349-1.045-0.2-1.84
		c0.448-0.696,0.895-1.142,1.74-1.241h0.198h0.1c0.696,0.348,0.796,1.291,0.796,2.533c-0.149,1.739-0.199,3.677-0.199,5.614
		c0,0.696-0.05,1.59-0.05,2.385v0.1c0,1.938-0.048,3.677,0.05,5.266c0.199,2.087,0.149,3.876-0.098,5.464
		c0,0.946,0,1.84,0.098,2.783h0.1c0.1,1.243,0.447,2.385,0.894,3.429h0.099c0.348,0.248,0.894,0.447,1.589,0.496
		c0.249,0,0.447,0.1,0.547,0.1c0.249,0.1,0.347,0.1,0.347,0.1c0.597,0.049,0.944,0.398,1.044,0.844
		C197.318,34.047,197.07,34.991,196.721,35.438"/>
	<path id="XMLID_731_" fill="#FFFFFF" d="M198.561,15.962v0.199h-0.199c-0.348-0.199-0.596-0.695-0.348-1.49
		C198.362,14.919,198.462,15.366,198.561,15.962 M212.123,33.649c0.249,0.547,0.199,1.142-0.149,1.69v0.098
		c-0.795,0.249-1.689,0.349-2.484,0.349c-0.795-0.05-1.737-0.15-2.384-0.398h-0.249c-1.043,0-1.936-0.049-2.831-0.049h-0.249
		c-1.141,0.098-1.937-0.15-2.633-0.349c0-0.15,0-0.15-0.1-0.15c-0.695-0.348-1.141-0.795-1.588-1.291v-0.199
		c-0.2-0.447-0.548-0.943-0.796-1.391v-0.1c0.049-0.695,0.049-1.589,0.049-2.285c0-0.795,0.15-1.738,0.248-2.384
		c0.05-1.044-0.198-1.739-0.397-2.186v-0.149c0-0.995,0.049-2.235,0.049-3.727c-0.1-0.943-0.1-1.937-0.1-2.881h0.15v-0.199V17.9
		v-0.994c0.596,0.1,0.796-0.248,0.496-1.292v-0.199v-0.248v-0.1c0.348-0.446,0.697-0.893,1.143-1.341v-0.249
		c1.142-0.545,2.434-0.744,4.123-0.645c1.739,0.049,3.231-0.15,4.472-0.597c0.348-0.893,0.695-1.689,1.192-2.633V9.405
		c-0.099-1.242-0.199-2.385-0.547-3.577c0-0.1,0-0.198-0.099-0.546c-0.1-0.795,0.149-1.242,0.695-1.242
		c0.944,0.447,1.491,1.143,1.838,2.286l-0.049,0.149c-0.199,0.994-0.348,1.789-0.348,2.584V10.2
		c0.098,0.596,0.198,1.044,0.297,1.391c-0.1,0.447-0.348,1.043-0.348,1.589v0.1c-0.049,1.044-0.049,2.186-0.049,3.329h0.198
		c0.349,0.348,0.349,0.695,0.099,1.242c-0.099,0.348-0.099,0.496-0.099,0.596c0.199,1.69,0.298,3.429,0.249,5.366
		c0,0.895,0,1.938-0.05,2.832v0.248c0,1.143,0,2.037,0.099,2.882c0.1,0.447,0.199,0.795,0.199,1.142
		c0.199,0.547,0.199,0.894,0.099,1.142C211.826,32.507,211.826,32.954,212.123,33.649"/>
	<path id="XMLID_734_" fill="#FFFFFF" d="M218.832,34.395c0,0,0,0.149-0.248,0.149c-0.249,0-0.348,0-0.695-0.049
		c-0.448-0.1-0.796-0.447-1.143-0.795c0,0,0-0.1,0.049-0.249V32.01v-0.347l0.1-0.149c0.15-0.547,0.15-0.895,0.05-1.243
		c0-0.248,0-0.348-0.1-0.447c0-0.695,0-1.242,0.248-1.739c0.199-0.547,0.1-0.994-0.447-1.143v-0.098v-0.695v-0.199
		c0.248-1.143,0.248-2.286,0.049-3.428v-0.249c0.249-1.044,0.15-2.036-0.397-3.329v-0.198c0.248-0.15,0.348-0.348,0.348-0.447
		l0.099-0.149c0.049-0.894,0.049-1.69-0.398-2.037v-0.249c0-1.24,0-2.384,0.05-3.526c0.199-0.348,0.547-0.547,1.143-0.547
		c0.446,0.1,0.794,0.348,0.992,0.596c0.696,1.341,0.796,2.733,0.547,4.57c-0.149,0.349-0.149,0.796-0.149,0.995
		c0.1,1.043,0.199,1.839,0.199,2.782v0.994c-0.05,1.59,0.049,3.577,0.099,5.713c0,0.597,0,1.292,0.1,1.938
		C219.428,31.215,219.279,32.953,218.832,34.395 M216.597,4.933c0-0.348-0.1-0.695-0.1-1.143c0.447-0.248,1.143-0.447,1.739-0.447
		v0.248c0.098,0.298,0.198,0.647,0.297,0.994c0,0.795-0.248,1.291-0.595,1.739C217.392,6.276,216.945,5.828,216.597,4.933"/>
</g>
<g>
	<g>
		<path fill="#BF2C2B" d="M-397.074-194.574c0,0.517,0,1.034,0,1.55c0,1.363,1.137,2.5,2.5,2.5s2.5-1.137,2.5-2.5
			c0-0.517,0-1.034,0-1.55c0-1.363-1.137-2.5-2.5-2.5S-397.074-195.936-397.074-194.574L-397.074-194.574z"/>
	</g>
</g>
<g>
	<g>
		<path fill="#BF2C2B" d="M-398.45-38.585c3.224,0,3.224-5,0-5S-401.674-38.585-398.45-38.585L-398.45-38.585z"/>
	</g>
</g>
<rect x="-194.574" y="165.116" fill="#BF2C2B" stroke="#BF2C2B" stroke-miterlimit="10" width="655.814" height="155.814"/>
<rect x="-541.86" y="148.062" fill="#BF2C2B" stroke="#BF2C2B" stroke-miterlimit="10" width="495.349" height="193.023"/>
</svg>
