<?xml version="1.0" encoding="utf-8"?>
<!-- Generator: Adobe Illustrator 17.0.0, SVG Export Plug-In . SVG Version: 6.00 Build 0)  -->
<!DOCTYPE svg PUBLIC "-//W3C//DTD SVG 1.1//EN" "http://www.w3.org/Graphics/SVG/1.1/DTD/svg11.dtd">
<svg version="1.1" id="Livello_1" xmlns="http://www.w3.org/2000/svg" xmlns:xlink="http://www.w3.org/1999/xlink" x="0px" y="0px"
	 width="219.38px" height="126.267px" viewBox="0 0 219.38 126.267" enable-background="new 0 0 219.38 126.267"
	 xml:space="preserve">
<g id="XMLID_718_">
	<path id="XMLID_1009_" fill="none" stroke="#BCC7BC" stroke-miterlimit="10" d="M110.764,0C91.96,0,76.716,15.244,76.716,34.048
		s15.244,34.048,34.048,34.048s34.048-15.244,34.048-34.048S129.568,0,110.764,0z M137.185,27.591
		c-0.948,2.719-1.97,5.393-4.07,7.537c-1.543,1.575-2.882,3.351-4.282,5.062c-1.166,1.426-0.511,2.987-0.026,4.371
		c0.55,1.569,0.483,3.101,0.25,4.635c-0.087,0.57-0.705,1.138-1.212,1.543c-0.814,0.65-1.747,1.144-2.613,1.732
		c-0.629,0.427-0.844,0.979-0.674,1.771c0.401,1.872,0.206,2.143-1.39,3.188c-0.354,0.232-0.639,0.683-0.74,1.11
		c-0.667,2.844-4.01,5.522-6.927,5.704c-0.922,0.058-1.826,0.411-2.739,0.411c-0.131,0-0.262,0-0.393,0
		c-0.528,0-1.056-1.223-1.129-2.295c-0.064-0.93-0.873-1.599-1.285-2.523c-0.407-0.913-0.734-1.863-1.089-2.799
		c-0.471-1.243-0.795-2.566-1.432-3.717c-1.161-2.098-1.268-4.097,0.071-6.107c0.74-1.111,0.17-2.226-0.118-3.214
		c-0.403-1.383-1.018-2.805-1.905-3.921c-1.056-1.328-1.445-2.575-1.068-4.224c0.473-2.07,0.236-2.263-1.825-2.348
		c-0.384-0.016-0.934-0.168-1.106-0.444c-0.777-1.249-2.027-1.357-3.014-0.829c-2.19,1.17-4.581,0.44-6.804,1.035
		c-0.31,0.083-0.766-0.01-1.032-0.197c-1.52-1.066-3.084-2.102-3.817-3.945c-0.064-0.16-0.158-0.31-0.257-0.457l0,0
		c-0.12-0.178-0.252-0.35-0.378-0.522c-0.704-0.96-1.706-1.763-1.533-3.166c0.024-0.193-0.323-0.392-0.395-0.636
		c-0.019-0.063,0.104-0.573,0.147-0.622c1.262-1.409,1.128-2.604,1.13-4.295c0-0.485-0.116-1.092,0.123-1.432
		c1.333-1.892,2.316-4.094,4.676-5.098c0.583-0.248,1.115-0.932,1.374-1.545c0.414-0.983,0.954-1.73,1.88-2.277
		c0.496-0.293,0.851-0.784,1.339-1.096c0.28-0.179,0.7-0.122,1.056-0.119c0.817,0.006,1.748,0.481,2.426,0.194
		c1.373-0.583,2.741-0.47,4.196-0.516c0.967-0.031,1.926,0.053,2.889,0.053c0.197,0,0.393,0,0.59,0c0.755,0,0.575,0.998,0.486,1.901
		c-0.039,0.389,0.308,0.452,0.658,0.638c1.275,0.679,2.635,1.195,3.942,1.816c0.633,0.3,0.993,0.256,1.27-0.472
		c0.438-1.154,1.122-1.397,2.248-0.996c1.725,0.614,3.442,1.275,5.345,0.772c0.419-0.111,0.911-0.03,1.354,0.049
		c1.71,0.307,2.107,1.018,1.718,2.763c-0.09,0.403,0.018,0.935,0.221,1.305c0.946,1.724,2.196,3.233,2.82,5.199
		c0.423,1.332,1.643,2.445,2.617,3.559c0.825,0.944,2.291,1.297,2.477,2.881c0.002,0.017,0.022,0.035,0.037,0.052
		c0.174,0.202,1.154,0.438,1.659,0.344c1.016-0.19,1.982-0.647,2.973-0.981C136.879,26.093,137.529,26.605,137.185,27.591z"/>
	<path id="XMLID_1008_" fill="#BCC7BC" d="M96.256,25.658c0.452-0.148,0.899-0.296,1.336-0.443c1.091-0.367,2.118-0.724,3.002-1.051
		c0.177-0.065,0.348-0.13,0.513-0.193c0.66-0.252,1.219-0.482,1.638-0.68c0.209-0.099,0.384-0.19,0.518-0.271
		c0.067-0.041,0.124-0.079,0.171-0.115c0.426-0.328,0.856-0.496,1.272-0.562c0.416-0.067,0.817-0.032,1.186,0.046
		c0.737,0.156,1.344,0.483,1.671,0.516c0.655,0.066,2.104,0.066,2.887-0.328c0.783-0.393,0.979-1.18,1.7-1.278
		c0.721-0.098,1.13-0.36,1.606-0.116l1.147,0.476c0.098,0.016,1.18,0.787,2.294,1.524c1.114,0.737,4.309,1.589,8.34,2.671
		c2.65,0.711,4.662,1.054,5.733,1.206c-0.015-0.018-0.035-0.035-0.037-0.052c-0.186-1.583-1.652-1.936-2.477-2.881
		c-0.974-1.114-2.194-2.227-2.617-3.559c-0.624-1.966-1.874-3.475-2.82-5.199c-0.203-0.37-0.311-0.902-0.221-1.305
		c0.389-1.745-0.008-2.456-1.718-2.763c-0.443-0.079-0.935-0.16-1.354-0.049c-1.903,0.503-3.62-0.158-5.345-0.772
		c-1.125-0.4-1.809-0.158-2.248,0.996c-0.277,0.728-0.637,0.772-1.27,0.472c-1.307-0.621-2.668-1.137-3.942-1.816
		c-0.35-0.186-0.696-0.249-0.658-0.638c0.089-0.903,0.269-1.901-0.486-1.901c-0.197,0-0.393,0-0.59,0
		c-0.963,0-1.921-0.084-2.889-0.053c-1.455,0.047-2.823-0.067-4.196,0.516c-0.678,0.288-1.609-0.187-2.426-0.194
		C95.62,7.86,95.2,7.803,94.92,7.982c-0.488,0.312-0.843,0.804-1.339,1.096c-0.926,0.547-1.465,1.293-1.88,2.277
		c-0.259,0.613-0.791,1.297-1.374,1.545c-2.36,1.005-3.343,3.206-4.676,5.098c-0.239,0.34-0.123,0.947-0.123,1.432
		c-0.001,1.691,0.132,2.886-1.13,4.295c-0.044,0.049-0.166,0.559-0.147,0.622c0.073,0.244,0.419,0.443,0.395,0.636
		c-0.173,1.403,0.829,2.206,1.533,3.166c0.126,0.172,0.257,0.344,0.378,0.522l0,0v0C88.17,28.192,92.41,26.919,96.256,25.658z"/>
	<path id="XMLID_1007_" fill="#FFFFFF" d="M131.269,27.06c-1.071-0.152-3.083-0.494-5.733-1.206
		c-4.031-1.081-7.226-1.933-8.34-2.671c-1.114-0.737-2.196-1.507-2.294-1.524l-1.147-0.476c-0.475-0.245-0.885,0.018-1.606,0.116
		c-0.721,0.098-0.918,0.885-1.7,1.278c-0.783,0.393-2.232,0.393-2.887,0.328c-0.328-0.033-0.934-0.36-1.671-0.516
		c-0.369-0.078-0.77-0.113-1.186-0.046c-0.416,0.067-0.846,0.235-1.272,0.562c-0.047,0.036-0.104,0.074-0.171,0.115
		c-0.134,0.081-0.309,0.172-0.518,0.271c-0.419,0.198-0.978,0.428-1.638,0.68c-0.165,0.063-0.336,0.127-0.513,0.193
		c-0.884,0.327-1.911,0.685-3.002,1.051c-0.436,0.147-0.883,0.295-1.336,0.443c-3.845,1.261-8.086,2.534-9.697,3.013
		c0.1,0.147,0.193,0.296,0.257,0.457c0.733,1.843,2.297,2.879,3.817,3.945c0.266,0.186,0.722,0.28,1.032,0.197
		c2.224-0.596,4.615,0.134,6.804-1.035c0.987-0.527,2.237-0.419,3.014,0.829c0.172,0.277,0.722,0.428,1.106,0.444
		c2.061,0.085,2.298,0.278,1.825,2.348c-0.377,1.649,0.011,2.896,1.068,4.224c0.888,1.116,1.502,2.538,1.905,3.921
		c0.288,0.987,0.858,2.103,0.118,3.214c-1.339,2.01-1.232,4.009-0.071,6.107c0.637,1.151,0.961,2.474,1.432,3.717
		c0.355,0.936,0.681,1.886,1.089,2.799c0.412,0.924,1.221,1.593,1.285,2.523c0.073,1.072,0.6,2.295,1.129,2.295
		c0.131,0,0.262,0,0.393,0c0.912,0,1.817-0.353,2.739-0.411c2.918-0.182,6.26-2.861,6.927-5.704c0.1-0.427,0.386-0.878,0.74-1.11
		c1.596-1.046,1.791-1.316,1.39-3.188c-0.169-0.792,0.045-1.344,0.674-1.771c0.866-0.588,1.799-1.082,2.613-1.732
		c0.508-0.405,1.126-0.973,1.212-1.543c0.233-1.533,0.3-3.065-0.25-4.635c-0.485-1.384-1.14-2.945,0.026-4.371
		c1.4-1.711,2.739-3.487,4.282-5.062c2.1-2.144,3.122-4.817,4.07-7.537c0.344-0.986-0.306-1.498-1.284-1.168
		c-0.991,0.334-1.956,0.792-2.973,0.981C132.424,27.498,131.444,27.262,131.269,27.06z"/>
	<path id="XMLID_1006_" fill="#FFFFFF" d="M97.591,25.215c-0.436,0.147-0.883,0.295-1.336,0.443
		C96.708,25.51,97.155,25.362,97.591,25.215z"/>
	<path id="XMLID_1005_" fill="#FFFFFF" d="M100.593,24.164c-0.884,0.327-1.911,0.685-3.002,1.051
		C98.683,24.848,99.709,24.491,100.593,24.164z"/>
	<path id="XMLID_1004_" fill="#FFFFFF" d="M104.705,22.343c0.416-0.067,0.817-0.032,1.186,0.046
		C105.523,22.311,105.121,22.276,104.705,22.343z"/>
	<path id="XMLID_1003_" fill="#FFFFFF" d="M86.558,28.671L86.558,28.671c1.612-0.479,5.852-1.752,9.697-3.013
		C92.41,26.919,88.17,28.192,86.558,28.671z"/>
	<path id="XMLID_1002_" fill="#FFFFFF" d="M103.262,23.02c-0.134,0.081-0.309,0.172-0.518,0.271
		C102.953,23.192,103.128,23.102,103.262,23.02z"/>
	<path id="XMLID_1001_" fill="#FFFFFF" d="M102.744,23.291c-0.419,0.198-0.978,0.428-1.638,0.68
		C101.766,23.719,102.325,23.489,102.744,23.291z"/>
</g>
<path id="XMLID_1012_" fill="none" d="M102.153,91.494c-1.392-0.998-3.592-1.227-6.601-1.227h-3.42v12h2.286
	c3.312,0,5.777-0.455,7.396-1.529c1.618-1.074,2.427-2.531,2.427-4.724C104.24,93.881,103.545,92.492,102.153,91.494z"/>
<polygon id="XMLID_1000_" fill="#FFFFFF" points="64.132,118.267 69.132,118.267 69.132,104.267 81.132,104.267 81.132,100.267 
	69.132,100.267 69.132,90.267 81.132,90.267 81.132,85.267 64.132,85.267 "/>
<path id="XMLID_997_" fill="#BCC7BC" d="M108.914,95.965c0-3.463-1.044-6.116-3.131-7.947c-2.087-1.83-5.112-2.751-9.075-2.751
	h-9.577v33h5v-15.292l10.793,15.292h5.989l-9.369-12.66c2.752-0.136,5.003-1.097,6.749-2.904
	C108.041,100.896,108.914,98.657,108.914,95.965z M101.813,100.738c-1.619,1.074-4.084,1.529-7.396,1.529h-2.286v-12h3.42
	c3.01,0,5.21,0.229,6.601,1.227c1.392,0.998,2.087,2.387,2.087,4.52C104.24,98.207,103.431,99.664,101.813,100.738z"/>
<polyline id="XMLID_2_" fill="#BCC7BC" points="114.262,126.236 133.757,85.267 128.448,85.267 121.21,101.148 113.95,85.267 
	108.619,85.267 118.558,105.92 110.891,122.267 104.558,122.267 108.537,126.267 114.132,126.267 "/>
<polygon id="XMLID_995_" fill="#BCC7BC" points="174.132,99.267 160.132,99.267 160.132,85.267 155.132,85.267 155.132,118.267 
	160.132,118.267 160.132,104.267 174.132,104.267 174.132,118.267 178.132,118.267 178.132,85.267 174.132,85.267 "/>
<polygon id="XMLID_994_" fill="#FFFFFF" points="54.235,108.981 57.865,118.267 63.105,118.267 59.128,109.267 54.174,109.267 "/>
<polygon id="XMLID_993_" fill="#FFFFFF" points="47.132,108.523 47.132,104.267 43.118,104.267 47.86,91.721 52.51,104.267 
	57.529,104.267 50.196,85.267 45.546,85.267 32.637,118.267 37.696,118.267 41.417,109.267 47.132,109.267 47.132,108.523 "/>
<rect id="XMLID_66_" x="141.132" y="109.267" fill="#BCC7BC" width="5" height="9"/>
<polygon id="XMLID_64_" fill="#BCC7BC" points="135.132,90.267 141.132,90.267 141.132,104.267 146.132,104.267 146.132,90.267 
	152.132,90.267 152.132,85.267 135.132,85.267 "/>
<polygon id="XMLID_9_" fill="#BCC7BC" points="210.673,118.267 215.132,118.267 215.132,109.267 210.768,109.267 "/>
<polygon id="XMLID_8_" fill="#BCC7BC" points="208.155,85.267 198.582,110.813 189.008,85.267 181.132,85.267 181.132,118.267 
	186.512,118.267 186.172,89.591 196.857,118.267 200.26,118.267 210.992,89.194 210.82,104.267 215.132,104.267 215.132,85.267 "/>
<polygon id="XMLID_6_" fill="#FFFFFF" points="26.636,104.267 31.132,104.267 31.132,85.267 26.466,85.267 "/>
<polygon id="XMLID_5_" fill="#FFFFFF" points="26.693,110.562 10.472,85.267 5.132,85.267 5.132,118.267 10.335,118.267 
	10.018,92.517 26.602,118.267 31.132,118.267 31.132,109.267 26.678,109.267 "/>
</svg>
